<?xml version="1.0" encoding="utf-8"?><svg xmlns="http://www.w3.org/2000/svg" xmlns:xlink="http://www.w3.org/1999/xlink"><symbol viewBox="0 0 490 490" id="address"><path d="M245.001 0C156.458 0 84.424 71.987 84.424 160.472c0 85.04 145.93 315.146 152.142 324.9a10.002 10.002 0 0 0 16.869 0c6.212-9.754 152.141-239.861 152.141-324.9C405.576 71.987 333.542 0 245.001 0zm0 461.127c-13.207-21.363-40.009-65.587-66.549-114.588-48.429-89.418-74.027-153.758-74.027-186.067C104.424 83.015 167.487 20 245.001 20s140.575 63.015 140.575 140.472c0 32.309-25.599 96.649-74.027 186.067-26.54 49-53.342 93.225-66.548 114.588z"/><path d="M244.999 76.071c-41.884 0-75.959 33.149-75.959 73.894 0 40.744 34.075 73.891 75.959 73.891s75.959-33.147 75.959-73.891c0-40.745-34.075-73.894-75.959-73.894zm0 127.784c-30.855 0-55.959-24.175-55.959-53.891 0-29.717 25.104-53.894 55.959-53.894s55.959 24.177 55.959 53.894c0 29.716-25.103 53.891-55.959 53.891z"/></symbol><symbol viewBox="0 0 130.4 130.4" id="adv-bg"><style>.st0{fill:#cfcece}</style><path d="M11.6 33.2L65.4 1.4l54.5 31.8-54.2 30.9zm-1 62.4l53.6-30.2-53.6-30.7zm110-60.5L66.9 65.3 120.6 96zM11.8 98.2l53.9-31.9 54.5 31.9L66 129z"/></symbol><symbol viewBox="0 0 512 512" id="arrow-down"><path d="M509.121 125.966a9.821 9.821 0 0 0-13.893 0L256.005 365.194 16.771 125.966a9.821 9.821 0 0 0-13.893 0 9.821 9.821 0 0 0 0 13.893l246.18 246.175a9.819 9.819 0 0 0 13.893 0l246.17-246.175a9.821 9.821 0 0 0 0-13.893z"/></symbol><symbol viewBox="-41 164.9 512 512" id="arrow-left"><path d="M82.1 420.9c0 2.6 1 5.1 2.9 6.9L331.1 674c1.9 1.9 4.4 2.9 6.9 2.9s5-1 6.9-2.9c3.8-3.8 3.8-10.1 0-13.9L105.8 420.9 345 181.7c3.8-3.8 3.8-10.1 0-13.9-3.8-3.8-10.1-3.8-13.9 0L85 413.9c-1.9 1.9-2.9 4.4-2.9 7z"/></symbol><symbol viewBox="0 0 268.832 268.832" id="arrow-next"><path d="M265.171 125.577l-80-80c-4.881-4.881-12.797-4.881-17.678 0-4.882 4.882-4.882 12.796 0 17.678l58.661 58.661H12.5c-6.903 0-12.5 5.597-12.5 12.5 0 6.902 5.597 12.5 12.5 12.5h213.654l-58.659 58.661c-4.882 4.882-4.882 12.796 0 17.678 2.44 2.439 5.64 3.661 8.839 3.661s6.398-1.222 8.839-3.661l79.998-80c4.882-4.882 4.882-12.796 0-17.678z"/></symbol><symbol viewBox="0 0 476.213 476.213" id="arrow-next-flat"><path d="M345.606 107.5l-21.212 21.213 94.393 94.394H0v30h418.787L324.394 347.5l21.212 21.213 130.607-130.607z"/></symbol><symbol viewBox="0 0 512 512" id="arrow-right"><path d="M386.035 249.056L139.858 2.878c-3.838-3.838-10.055-3.838-13.893 0s-3.838 10.055 0 13.893l239.231 239.231-239.231 239.227a9.821 9.821 0 0 0 0 13.893c1.919 1.919 4.433 2.878 6.946 2.878s5.028-.96 6.946-2.878l246.178-246.173a9.823 9.823 0 0 0 0-13.893z"/></symbol><symbol viewBox="0 0 240.823 240.823" id="arrow-right-bold"><path d="M183.189 111.816L74.892 3.555c-4.752-4.74-12.451-4.74-17.215 0-4.752 4.74-4.752 12.439 0 17.179l99.707 99.671-99.695 99.671c-4.752 4.74-4.752 12.439 0 17.191 4.752 4.74 12.463 4.74 17.215 0l108.297-108.261c4.68-4.691 4.68-12.511-.012-17.19z"/></symbol><symbol viewBox="429.4 32.2 39.7 39.7" id="basket"><path d="M463.1 60.8h-20.7c-.4-.1-.9-.3-1.1-.4-.4-.2-1-.9-1.2-1.4-.2-.5-.1-1.3-.1-2 0-.1.1-.2.1-.4l2.4-4.6-6.4-14.1h-3.5c-.6 0-1-.4-1-1s.4-1 1-1h4.1c.4 0 .8.2.9.6l6.8 15.2c.1.3.1.6 0 .9l-2.5 4.8v1s.2.3.3.3c0 0 .3.1.5.2H463c.6 0 1 .4 1 1s-.3.9-.9.9zm-20.2 9.6c-2.2 0-4-1.8-4-4.1s1.8-4.1 4-4.1 4 1.8 4 4.1-1.8 4.1-4 4.1zm0-6.2c-1.1 0-2 .9-2 2.1s.9 2.1 2 2.1 2-.9 2-2.1-.9-2.1-2-2.1zm17 6.2c-2.2 0-4-1.8-4-4.1s1.8-4.1 4-4.1 4 1.8 4 4.1-1.7 4.1-4 4.1zm0-6.2c-1.1 0-2 .9-2 2.1s.9 2.1 2 2.1 2-.9 2-2.1-.8-2.1-2-2.1z"/><path d="M459.1 53.5h-15.7v-2h15.1l6.1-11h-26.5v-2h28.2c.4 0 .7.2.9.5.2.3.2.7 0 1L460 53c-.2.3-.6.5-.9.5z"/></symbol><symbol viewBox="0 0 511.949 511.949" id="cancel"><path d="M271.215 255.894l237.76-237.867c4.053-4.267 3.947-10.987-.213-15.04a10.763 10.763 0 0 0-14.827 0l-237.867 237.76L18.308 2.988c-4.267-4.053-10.987-3.947-15.04.32a10.763 10.763 0 0 0 0 14.827l237.76 237.76-237.76 237.76c-4.267 4.053-4.373 10.88-.213 15.04 4.16 4.16 10.88 4.373 15.04.213l.213-.213 237.76-237.76 237.76 237.76c4.267 4.053 10.987 3.947 15.04-.213a10.763 10.763 0 0 0 0-14.827L271.215 255.894z"/></symbol><symbol viewBox="0 0 540.078 540.078" id="clock"><path d="M365.71 86.413l-98.997 171.321L157.7 194.793l-9.001 15.59 109.008 62.937-8.943 15.477 15.57 8.997 8.946-15.482 15.542 8.973 9.001-15.59-15.536-8.97 98.994-171.314z"/><path d="M270.039 0C121.14 0 0 121.139 0 270.039s121.14 270.039 270.039 270.039c148.9 0 270.039-121.14 270.039-270.039S418.938 0 270.039 0zm0 522.075c-138.98 0-252.036-113.056-252.036-252.036S131.059 18.003 270.039 18.003s252.036 113.056 252.036 252.036-113.056 252.036-252.036 252.036z"/><path d="M27.004 270.039h36.005v18.003H27.004zm450.065-18.003h36.005v18.003h-36.005zM252.036 27.004h18.003v36.005h-18.003zm18.003 450.065h18.003v36.005h-18.003z"/></symbol><symbol viewBox="0 0 99.2 99.2" id="config"><path d="M60.4 59.1h-24v-15H24.2v15H.4V36.2h15.3V24.1H.4V1.2h23.9V16h12.1V1.2h24v22.9h-15v12.1h15v22.9zm-21-3h18V39.2h-15V21.1h15V4.2h-18V19H21.2V4.2H3.4v16.9h15.3v18.1H3.4v16.9h17.9v-15h18.1v15zm1.8 42.1h-2.8V82H34V69.2h-7.1V82h-4.3v16.2h-2.8v-19h4.3V66.4h12.7v12.7h4.4zm57.7-57.6h-19v-4.1H67V24.1h12.8v-4.2h19.1v2.7H82.6v4.3H69.8v6.8h12.8v4.2h16.3z"/></symbol><symbol viewBox="0 0 591.6 591.6" id="delete"><path d="M540.6 71.4h-91.8v-51c0-5.712-4.488-10.2-10.2-10.2H153c-5.712 0-10.2 4.488-10.2 10.2v51H51c-28.152 0-51 22.848-51 51s22.848 51 51 51h11.22L102 531.624C105.264 561 126.276 581.4 153 581.4h285.6c26.724 0 47.736-20.604 51-49.776L529.38 173.4h11.22c28.152 0 51-22.848 51-51s-22.848-51-51-51zM163.2 30.6h265.2v40.8H163.2V30.6zm306 498.576c-1.632 15.3-12.036 31.824-30.6 31.824H153c-18.564 0-28.968-16.524-30.6-31.824L82.824 173.4h425.952L469.2 529.176zM540.6 153H51c-16.932 0-30.6-13.668-30.6-30.6S34.068 91.8 51 91.8h489.6c16.932 0 30.6 13.668 30.6 30.6S557.532 153 540.6 153z"/><path d="M193.8 535.5c2.856 0 5.1-2.244 5.1-5.1v-306c0-2.856-2.244-5.1-5.1-5.1s-5.1 2.244-5.1 5.1v306c0 2.856 2.244 5.1 5.1 5.1zm204 0c2.856 0 5.1-2.244 5.1-5.1v-306c0-2.856-2.244-5.1-5.1-5.1s-5.1 2.244-5.1 5.1v306c0 2.856 2.244 5.1 5.1 5.1zm-102 0c2.856 0 5.1-2.244 5.1-5.1v-306c0-2.856-2.244-5.1-5.1-5.1s-5.1 2.244-5.1 5.1v306c0 2.856 2.244 5.1 5.1 5.1zM55.08 100.98c-14.076 0-25.5 11.424-25.5 25.5 0 2.856 2.244 5.1 5.1 5.1s5.1-2.244 5.1-5.1c0-8.364 6.936-15.3 15.3-15.3 2.856 0 5.1-2.244 5.1-5.1 0-2.856-2.244-5.1-5.1-5.1zm501.84 12.24c-2.856 0-5.1 2.244-5.1 5.1 0 8.364-6.936 15.3-15.3 15.3-2.856 0-5.1 2.244-5.1 5.1s2.244 5.1 5.1 5.1c14.076 0 25.5-11.424 25.5-25.5 0-2.856-2.244-5.1-5.1-5.1z"/></symbol><symbol viewBox="0 0 139.4 44.7" id="dorohovdesign"><path d="M52.2 19.5V8.1H57c3.6 0 6.1 2.1 6.1 5.7 0 3.5-2.6 5.7-6.1 5.7h-4.8zm7.9-5.7c0-1.8-1.1-3.1-3.1-3.1h-1.9v6.2H57c2 0 3.1-1.4 3.1-3.1m4.1 0c0-3.4 2.6-5.9 6.1-5.9 3.5 0 6.1 2.4 6.1 5.9 0 3.5-2.6 5.9-6.1 5.9-3.5 0-6.1-2.4-6.1-5.9m9.2 0c0-1.9-1.2-3.3-3.1-3.3-1.9 0-3.1 1.4-3.1 3.3 0 1.8 1.2 3.3 3.1 3.3 1.9 0 3.1-1.4 3.1-3.3m11 5.7l-1.9-3.8H81v3.8h-2.9V8.1h5.7c2.5 0 3.9 1.7 3.9 3.8 0 2-1.2 3-2.3 3.4l2.3 4.2h-3.3zm.3-7.6c0-.8-.6-1.2-1.4-1.2H81v2.4h2.3c.8 0 1.4-.4 1.4-1.2m4.2 1.9c0-3.4 2.6-5.9 6.1-5.9 3.5 0 6.1 2.4 6.1 5.9 0 3.5-2.6 5.9-6.1 5.9-3.5 0-6.1-2.4-6.1-5.9m9.1 0c0-1.9-1.2-3.3-3.1-3.3-1.9 0-3.1 1.4-3.1 3.3 0 1.8 1.2 3.3 3.1 3.3 1.9 0 3.1-1.4 3.1-3.3m12.4 5.7v-4.6h-4.7v4.6h-3V8.1h3v4.3h4.7V8.1h2.9v11.4zm4.6-5.7c0-3.4 2.6-5.9 6.1-5.9 3.5 0 6.1 2.4 6.1 5.9 0 3.5-2.6 5.9-6.1 5.9-3.5 0-6.1-2.4-6.1-5.9m9.2 0c0-1.9-1.2-3.3-3.1-3.3-1.9 0-3.1 1.4-3.1 3.3 0 1.8 1.2 3.3 3.1 3.3 1.9 0 3.1-1.4 3.1-3.3m7.3 5.7l-4.3-11.4h3.3l2.8 8.2 2.8-8.2h3.3l-4.2 11.4zm-79.3 17V25.1H57c3.6 0 6.1 2.1 6.1 5.7 0 3.5-2.6 5.7-6.1 5.7h-4.8zm7.9-5.7c0-1.8-1.1-3.1-3.1-3.1h-1.9v6.2H57c2 0 3.1-1.4 3.1-3.1m4.7 5.7V25.1h8.3v2.6h-5.3v1.8H73V32h-5.2v1.9h5.3v2.6zm9.6-1.6l1.5-2.2c.8.8 2.1 1.5 3.6 1.5 1 0 1.6-.4 1.6-.9 0-1.5-6.4-.3-6.4-4.7 0-1.9 1.6-3.6 4.5-3.6 1.8 0 3.4.5 4.6 1.6l-1.6 2.1c-1-.8-2.2-1.2-3.3-1.2-.8 0-1.2.3-1.2.8 0 1.4 6.4.4 6.4 4.6 0 2.3-1.7 3.8-4.7 3.8-2.2 0-3.8-.7-5-1.8m11.5-9.8h2.9v11.3h-2.9zm4.7 5.7c0-3.6 2.8-5.9 6.1-5.9 2.5 0 4.1 1.3 4.8 2.8L99.1 29c-.4-.7-1.3-1.4-2.4-1.4-1.9 0-3.2 1.4-3.2 3.3s1.3 3.3 3.2 3.3c.8 0 1.7-.3 2.1-.7v-.9h-2.6V30h5.5v4.5c-1.2 1.3-2.9 2.2-5 2.2-3.4 0-6.1-2.3-6.1-5.9m20.9 5.7l-4.8-6.6v6.6h-2.9V25.1h3l4.6 6.3v-6.3h2.9v11.4zM17.7 0H0v44.7h17.8c15 0 24.6-8.8 24.6-22.4C42.4 8.7 32.7 0 17.7 0m-.4 35.7h-8V9.5h8c9.3 0 15.7 3.7 15.7 12.7.1 7.5-5.8 13.5-15.7 13.5"/><path d="M19.1 17H17v10.6h2c4 0 6.4-2.4 6.4-5.4 0-3.7-2.6-5.2-6.3-5.2"/></symbol><symbol viewBox="0 0 96.124 96.123" id="fb"><path d="M72.089.02L59.624 0C45.62 0 36.57 9.285 36.57 23.656v10.907H24.037a1.96 1.96 0 0 0-1.96 1.961v15.803a1.96 1.96 0 0 0 1.96 1.96H36.57v39.876a1.96 1.96 0 0 0 1.96 1.96h16.352a1.96 1.96 0 0 0 1.96-1.96V54.287h14.654a1.96 1.96 0 0 0 1.96-1.96l.006-15.803a1.963 1.963 0 0 0-1.961-1.961H56.842v-9.246c0-4.444 1.059-6.7 6.848-6.7l8.397-.003a1.96 1.96 0 0 0 1.959-1.96V1.98A1.96 1.96 0 0 0 72.089.02z"/></symbol><symbol viewBox="0 0 97.395 97.395" id="inst"><path d="M12.501 0h72.393c6.875 0 12.5 5.09 12.5 12.5v72.395c0 7.41-5.625 12.5-12.5 12.5H12.501C5.624 97.395 0 92.305 0 84.895V12.5C0 5.09 5.624 0 12.501 0zm58.447 10.821a4.395 4.395 0 0 0-4.383 4.385v10.495a4.396 4.396 0 0 0 4.383 4.385h11.008a4.398 4.398 0 0 0 4.385-4.385V15.206a4.397 4.397 0 0 0-4.385-4.385H70.948zm15.439 30.367h-8.572a28.486 28.486 0 0 1 1.25 8.355c0 16.2-13.556 29.332-30.275 29.332-16.718 0-30.272-13.132-30.272-29.332 0-2.904.438-5.708 1.25-8.355h-8.945v41.141a3.884 3.884 0 0 0 3.872 3.872h67.822a3.883 3.883 0 0 0 3.872-3.872V41.188h-.002zM48.789 29.533c-10.802 0-19.56 8.485-19.56 18.953s8.758 18.953 19.56 18.953c10.803 0 19.562-8.485 19.562-18.953s-8.758-18.953-19.562-18.953z"/></symbol><symbol viewBox="726.2 -151.6 69.4 69.3" id="logotip"><path fill="#0A100B" d="M786.4-112.4h9.2c-2.1 15.5-14.3 27.8-29.8 30v-8.8H756v8.7c-15.5-2.2-27.7-14.5-29.7-30h9.3v-9.1h-9.4c2.1-15.5 14.3-28 29.8-30.2v8.7h5.3v25.5h25.1v5.2z"/><path fill="#208747" d="M761.3-142.9h4.5v-8.7c15.5 2.2 27.8 14.6 29.8 30.2h-9.3v4h-25"/><ellipse fill="#208747" cx="760.8" cy="-116.9" rx="19.4" ry="19.4"/><path fill="#0A100B" d="M761.3-117.4v-18.9c10.3.3 18.6 8.6 18.9 18.9h-18.9zm-35 0h69.3v1.1h-69.3z"/><path fill="#0A100B" d="M760.2-151.6h1.1v69.3h-1.1z"/></symbol><symbol viewBox="0 0 512 512" id="mailto"><path d="M162.133 204.8h51.2c4.71 0 8.533-3.823 8.533-8.533s-3.823-8.533-8.533-8.533h-51.2c-4.71 0-8.533 3.823-8.533 8.533s3.823 8.533 8.533 8.533zm0-68.267h102.4c4.719 0 8.533-3.823 8.533-8.533s-3.814-8.533-8.533-8.533h-102.4c-4.71 0-8.533 3.823-8.533 8.533s3.823 8.533 8.533 8.533zm187.734 102.4h-34.133c-4.719 0-8.533 3.823-8.533 8.533s3.814 8.533 8.533 8.533h34.133c4.719 0 8.533-3.823 8.533-8.533s-3.814-8.533-8.533-8.533zm-59.734 8.534a8.53 8.53 0 0 0-8.533-8.533H162.133c-4.71 0-8.533 3.823-8.533 8.533s3.823 8.533 8.533 8.533H281.6a8.53 8.53 0 0 0 8.533-8.533zm-51.2-51.2a8.536 8.536 0 0 0 8.533 8.533h102.4c4.719 0 8.533-3.823 8.533-8.533s-3.814-8.533-8.533-8.533h-102.4c-4.71-.001-8.533 3.822-8.533 8.533z"/><path d="M482.62 137.975l-8.533-5.709c-3.917-2.628-9.207-1.579-11.844 2.338-2.628 3.917-1.579 9.216 2.338 11.844l8.823 5.888c13.679 8.405 21.53 24.422 21.53 43.93v273.067c0 14.353-11.238 25.6-25.6 25.6H42.667c-14.353 0-25.6-11.247-25.6-25.6V196.267c0-15.479 6.63-35.046 21.811-44.109l8.533-5.709c3.917-2.628 4.966-7.927 2.347-11.844-2.62-3.908-7.919-4.966-11.836-2.338l-8.158 5.47C11.682 148.506 0 171.477 0 196.267v273.067C0 493.261 18.739 512 42.667 512h426.667C493.261 512 512 493.261 512 469.333V196.267c0-25.575-10.82-46.882-29.38-58.292z"/><path d="M156.493 351.693L37.385 445.56a8.546 8.546 0 0 0-1.425 11.989 8.546 8.546 0 0 0 11.989 1.425l119.108-93.867a8.546 8.546 0 0 0 1.425-11.989c-2.927-3.704-8.286-4.318-11.989-1.425zm198.647 0a8.534 8.534 0 0 0-11.981 1.434c-2.918 3.703-2.27 9.071 1.434 11.981l119.467 93.867a8.492 8.492 0 0 0 5.265 1.826 8.508 8.508 0 0 0 6.716-3.26c2.918-3.703 2.27-9.071-1.434-11.981L355.14 351.693zm-47.94-53.026a8.53 8.53 0 0 0-8.533-8.533h-85.333c-4.71 0-8.533 3.823-8.533 8.533s3.823 8.533 8.533 8.533h85.333a8.53 8.53 0 0 0 8.533-8.533z"/><path d="M35.874 208.171c-2.85 3.746-2.125 9.097 1.621 11.955l187.017 142.293c1.579 1.331 15.812 13.047 31.13 13.047 15.386 0 29.739-11.281 31.121-12.416l187.733-142.933c3.755-2.85 4.48-8.201 1.63-11.955-2.859-3.738-8.218-4.48-11.964-1.613l-20.429 15.556V42.667C443.733 19.541 424.192 0 401.067 0H110.933C87.808 0 68.267 19.541 68.267 42.667v179.422L47.83 206.541c-3.747-2.85-9.097-2.125-11.956 1.63zM85.333 42.667c0-13.636 11.964-25.6 25.6-25.6h290.133c13.636 0 25.6 11.964 25.6 25.6v192.427L276.241 349.628c-3.038 2.441-12.672 8.772-20.599 8.772-7.697 0-17.109-6.502-20.437-9.276L85.333 235.076V42.667z"/></symbol><symbol viewBox="0 0 512 512" id="minus"><path d="M490.667 234.667H21.333C9.551 234.667 0 244.218 0 256c0 11.782 9.551 21.333 21.333 21.333h469.333c11.782 0 21.333-9.551 21.333-21.333.001-11.782-9.55-21.333-21.332-21.333z"/></symbol><symbol viewBox="0 0 111.5 111.5" id="new"><path d="M60.2 110h-9.5l-1.1-.5-6.4-7 .2-2.2 23.7-18.4L85.7 38 75.2 12.5 55.5 4.3l-20.2 8-9.7 26.3 17.9 44.1h7.8l-4.2-35 2.2-1.5 6.5 3.1 5.6-3.1 2.3 1.4L62 69.4l-3-.2 1.5-19-3.9 2.1h-1.4L50.4 50l4.1 34-1.5 1.7H42.5l-1.4-1-18.5-45.5v-1.1l10.2-27.5.8-.8 21.3-8.5h1.2l20.8 8.6.8.9 11 26.6v1.2l-19 44.8-.4.6-22.8 17.7 4.8 5.3h8.1l4.8-6.3v-8.2h3v8.7l-.3.9-5.5 7.3z"/></symbol><symbol viewBox="0 0 95.481 95.481" id="ok"><path d="M43.041 67.254c-7.402-.772-14.076-2.595-19.79-7.064-.709-.556-1.441-1.092-2.088-1.713-2.501-2.402-2.753-5.153-.774-7.988 1.693-2.426 4.535-3.075 7.489-1.682.572.27 1.117.607 1.639.969 10.649 7.317 25.278 7.519 35.967.329 1.059-.812 2.191-1.474 3.503-1.812 2.551-.655 4.93.282 6.299 2.514 1.564 2.549 1.544 5.037-.383 7.016-2.956 3.034-6.511 5.229-10.461 6.761-3.735 1.448-7.826 2.177-11.875 2.661.611.665.899.992 1.281 1.376 5.498 5.524 11.02 11.025 16.5 16.566 1.867 1.888 2.257 4.229 1.229 6.425-1.124 2.4-3.64 3.979-6.107 3.81-1.563-.108-2.782-.886-3.865-1.977-4.149-4.175-8.376-8.273-12.441-12.527-1.183-1.237-1.752-1.003-2.796.071-4.174 4.297-8.416 8.528-12.683 12.735-1.916 1.889-4.196 2.229-6.418 1.15-2.362-1.145-3.865-3.556-3.749-5.979.08-1.639.886-2.891 2.011-4.014 5.441-5.433 10.867-10.88 16.295-16.322.359-.362.694-.746 1.217-1.305z"/><path d="M47.55 48.329c-13.205-.045-24.033-10.992-23.956-24.218C23.67 10.739 34.505-.037 47.84 0c13.362.036 24.087 10.967 24.02 24.478-.068 13.199-10.971 23.897-24.31 23.851zm12.001-24.186c-.023-6.567-5.253-11.795-11.807-11.801-6.609-.007-11.886 5.316-11.835 11.943.049 6.542 5.324 11.733 11.896 11.709 6.552-.023 11.768-5.285 11.746-11.851z"/></symbol><symbol viewBox="0 0 512 512" id="plus"><path d="M490.667 234.667H277.333V21.333C277.333 9.551 267.782 0 256 0s-21.333 9.551-21.333 21.333v213.333H21.333C9.551 234.667 0 244.218 0 256s9.551 21.333 21.333 21.333h213.333v213.333c0 11.782 9.551 21.333 21.333 21.333s21.333-9.551 21.333-21.333V277.333h213.333c11.782 0 21.333-9.551 21.333-21.333s-9.549-21.333-21.331-21.333z"/></symbol><symbol viewBox="0 0 1792 1792" id="ruble"><path d="M1299 565q0-100-65-162t-171-62H743v448h320q106 0 171-62t65-162zm237 0q0 193-126.5 315T1083 1002H743v118h505q14 0 23 9t9 23v128q0 14-9 23t-23 9H743v192q0 14-9.5 23t-22.5 9H544q-14 0-23-9t-9-23v-192H288q-14 0-23-9t-9-23v-128q0-14 9-23t23-9h224v-118H288q-14 0-23-9t-9-23V821q0-13 9-22.5t23-9.5h224V160q0-14 9-23t23-9h539q200 0 326.5 122T1536 565z"/></symbol><symbol viewBox="0 0 99.2 99.2" id="safety"><path d="M96.6 90.2L63.8 61.8V29.6L48.6 14.4H18.4L3.6 29.3v30.8l14.5 14.5h30.5l6.8-6.8 2 1.9-7.6 7.7H16.9L.8 61.3V28.1l16.5-16.5h32.5l16.8 16.8v32.1l31.8 27.6z"/><path d="M28.9 60.1L13.4 26.3l2.5-1.2 13.9 30.1 40.3-40.3 2 2z"/><path d="M64.214 8.823l1.98 1.98L26.667 50.33l-1.98-1.98z"/></symbol><symbol viewBox="0 0 451 451" id="search"><path d="M447.05 428l-109.6-109.6c29.4-33.8 47.2-77.9 47.2-126.1C384.65 86.2 298.35 0 192.35 0 86.25 0 .05 86.3.05 192.3s86.3 192.3 192.3 192.3c48.2 0 92.3-17.8 126.1-47.2L428.05 447c2.6 2.6 6.1 4 9.5 4s6.9-1.3 9.5-4c5.2-5.2 5.2-13.8 0-19zM26.95 192.3c0-91.2 74.2-165.3 165.3-165.3 91.2 0 165.3 74.2 165.3 165.3s-74.1 165.4-165.3 165.4c-91.1 0-165.3-74.2-165.3-165.4z"/></symbol><symbol viewBox="0 0 512 512" id="tel"><path d="M230.571 34.133c-4.71 0-8.491 3.823-8.491 8.533 0 4.71 3.857 8.533 8.576 8.533s8.533-3.823 8.533-8.533a8.53 8.53 0 0 0-8.533-8.533h-.085zm8.362 426.667c0 9.412 7.654 17.067 17.067 17.067 9.412 0 17.067-7.654 17.067-17.067 0-9.412-7.654-17.067-17.067-17.067-9.412 0-17.067 7.655-17.067 17.067z"/><path d="M128 392.533a8.536 8.536 0 0 0 8.533-8.533V42.667c0-12.442 13.158-25.6 25.6-25.6h187.733c12.442 0 25.6 13.158 25.6 25.6 0 4.71 3.823 8.533 8.533 8.533s8.533-3.823 8.533-8.533C392.533 20.736 371.797 0 349.867 0H162.133c-21.931 0-42.667 20.736-42.667 42.667V384c.001 4.71 3.824 8.533 8.534 8.533z"/><path d="M264.533 34.133A8.536 8.536 0 0 0 256 42.666a8.536 8.536 0 0 0 8.533 8.533h34.133a8.536 8.536 0 0 0 8.533-8.533 8.536 8.536 0 0 0-8.533-8.533h-34.133zM332.8 153.6a8.509 8.509 0 0 0 6.033-2.5 8.523 8.523 0 0 0 0-12.066l-17.067-17.067a8.525 8.525 0 0 0-12.066 0 8.525 8.525 0 0 0 0 12.066l17.067 17.067a8.509 8.509 0 0 0 6.033 2.5zm-74.3-31.633a8.525 8.525 0 0 0 0 12.066l68.267 68.267a8.51 8.51 0 0 0 6.033 2.5 8.509 8.509 0 0 0 6.033-2.5 8.523 8.523 0 0 0 0-12.066l-68.267-68.267a8.523 8.523 0 0 0-12.066 0z"/><path d="M384 68.267H162.133c-4.71 0-8.533 3.823-8.533 8.533s3.823 8.533 8.533 8.533h213.333v384c0 12.442-13.158 25.6-25.6 25.6H162.133c-12.442 0-25.6-13.158-25.6-25.6v-42.667h213.333c4.71 0 8.533-3.823 8.533-8.533s-3.823-8.533-8.533-8.533H128a8.536 8.536 0 0 0-8.533 8.533v51.2c0 21.931 20.736 42.667 42.667 42.667h187.733c21.931 0 42.667-20.736 42.667-42.667V76.8c-.001-4.71-3.824-8.533-8.534-8.533z"/></symbol><symbol viewBox="0 0 304.36 304.36" id="vk"><path d="M261.945 175.576c10.096 9.857 20.752 19.131 29.807 29.982 4 4.822 7.787 9.798 10.684 15.394 4.105 7.955.387 16.709-6.746 17.184l-44.34-.02c-11.436.949-20.559-3.655-28.23-11.474-6.139-6.253-11.824-12.908-17.727-19.372-2.42-2.642-4.953-5.128-7.979-7.093-6.053-3.929-11.307-2.726-14.766 3.587-3.523 6.421-4.322 13.531-4.668 20.687-.475 10.441-3.631 13.186-14.119 13.664-22.414 1.057-43.686-2.334-63.447-13.641-17.422-9.968-30.932-24.04-42.691-39.971-22.895-31.021-40.428-65.108-56.186-100.15C-2.01 76.458.584 72.22 9.295 72.07c14.465-.281 28.928-.261 43.41-.02 5.879.086 9.771 3.458 12.041 9.012 7.826 19.243 17.402 37.551 29.422 54.521 3.201 4.518 6.465 9.036 11.113 12.216 5.142 3.521 9.057 2.354 11.476-3.374 1.535-3.632 2.207-7.544 2.553-11.434 1.146-13.383 1.297-26.743-.713-40.079-1.234-8.323-5.922-13.711-14.227-15.286-4.238-.803-3.607-2.38-1.555-4.799 3.564-4.172 6.916-6.769 13.598-6.769h50.111c7.889 1.557 9.641 5.101 10.721 13.039l.043 55.663c-.086 3.073 1.535 12.192 7.07 14.226 4.43 1.448 7.35-2.096 10.008-4.905 11.998-12.734 20.561-27.783 28.211-43.366 3.395-6.852 6.314-13.968 9.143-21.078 2.096-5.276 5.385-7.872 11.328-7.757l48.229.043c1.43 0 2.877.021 4.262.258 8.127 1.385 10.354 4.881 7.844 12.817-3.955 12.451-11.65 22.827-19.174 33.251-8.043 11.129-16.645 21.877-24.621 33.072-7.328 10.223-6.746 15.376 2.357 24.255zm0 0" fill-rule="evenodd" clip-rule="evenodd"/></symbol><symbol viewBox="0 0 52.966 52.966" id="zoom-in"><path d="M28.983 20h-6v-6a1 1 0 0 0-2 0v6h-6a1 1 0 0 0 0 2h6v6a1 1 0 0 0 2 0v-6h6a1 1 0 0 0 0-2z"/><path d="M51.704 51.273L36.845 35.82c3.79-3.801 6.138-9.041 6.138-14.82 0-11.58-9.42-21-21-21s-21 9.42-21 21 9.42 21 21 21c5.083 0 9.748-1.817 13.384-4.832l14.895 15.491a.998.998 0 0 0 1.414.028 1 1 0 0 0 .028-1.414zM2.983 21c0-10.477 8.523-19 19-19s19 8.523 19 19-8.523 19-19 19-19-8.523-19-19z"/></symbol></svg>