<svg version="1" xmlns="http://www.w3.org/2000/svg" width="346.667" height="346.667" viewBox="0 0 260.000000 260.000000"><path d="M103 1.7c-34.2 7-66.8 30.6-85.2 61.5C10.1 76.2 3 95.4.6 110l-.6 3.5h35.4l-.1 7c-.1 3.8-.2 7.3-.2 7.7-.1.4-7.8.9-17.3 1-15.4.3-17.1.5-17.4 2-.3 2.2-1.6 2 18.3 2H35l.1 2.6c.1 3.2.1 10.5 0 11.3-.1.3-7.4.5-16.3.4-9-.1-16.8 0-17.5.3-.8.2-.9 1.1-.3 2.7.5 1.3.7 2.5.4 2.8-.2.2 0 1.5.5 2.9s1.2 4.1 1.5 6c1.6 9.9 10.1 28.9 18.7 41.8 5.1 7.6 19.5 23.5 26.3 28.8 9.9 7.9 22.9 15.2 35.2 20 8.9 3.4 25.9 7.7 27.3 6.8.5-.3.8-7.5.7-16.1-.1-9.5.3-15.6.9-15.8.6-.2 4.1-.3 7.9-.3l7 .1v16c.1 15.5.2 16 2.2 16.3 2.1.3 2.1 0 2-15.8-.1-8.8.1-16.1.4-16.1 2.8-.7 16-.2 16.1.6.1.5.2 7.7.3 16l.1 15 4.5-.2c10.2-.4 31.2-8.2 45-16.7 20.8-12.8 38.4-31.8 48.9-53.1 4.8-9.6 9.4-21.9 10.5-27.8.2-1.5.7-3.5 1-4.5.3-.9.7-3.4 1-5.5l.6-3.7h-4.3c-2.3-.1-10-.2-17.1-.3l-12.9-.2-.2-6c-.1-3.3 0-6.5.2-7.1.3-.8 5.2-1.1 15.6-1 17.5.2 18.7 0 18.7-2.5 0-1.8-1-1.8-17-1.6-10.7.1-17.1-.2-17.3-.8-.1-.6-.3-3.9-.2-7.5v-6.5l15.5-.2c8.5-.1 16.3-.2 17.2-.2 2.2-.1 1.9-3.1-1.7-16.9-4.2-16-12.2-32.5-21.7-45.1-6.6-8.7-21.5-23-29.9-28.8C189.1 12.5 169 4.2 151.7 1.5l-3.3-.6.1 16c0 10.3-.3 16.2-1 16.4-.9.3-14.2.2-15.5-.2-.3 0-.5-7.3-.4-16.1 0-15.7 0-16-2.1-16s-2.2.3-2.1 15.7v15.8l-7.7.3c-7.4.3-7.7.2-7.8-2-.1-1.3-.1-8.6-.1-16.4-.1-9.7-.4-14.1-1.2-14-.6 0-4 .6-7.6 1.3z"/></svg>