<?xml version="1.0" encoding="utf-8"?>
<!-- Generator: Adobe Illustrator 19.0.0, SVG Export Plug-In . SVG Version: 6.00 Build 0)  -->
<svg version="1.1" id="Capa_1" xmlns="http://www.w3.org/2000/svg" xmlns:xlink="http://www.w3.org/1999/xlink" x="0px" y="0px"
	 viewBox="429.4 32.2 39.7 39.7" style="enable-background:new 429.4 32.2 39.7 39.7;" xml:space="preserve">
<path d="M463.1,60.8h-20.4c-0.1,0-0.2,0-0.3,0c-0.4-0.1-0.9-0.3-1.1-0.4c-0.4-0.2-1-0.9-1.2-1.4c-0.2-0.5-0.1-1.3-0.1-2
	c0-0.1,0.1-0.2,0.1-0.4l2.4-4.6l-6.4-14.1h-3.5c-0.6,0-1-0.4-1-1s0.4-1,1-1h4.1c0.4,0,0.8,0.2,0.9,0.6l6.8,15.2
	c0.1,0.3,0.1,0.6,0,0.9l-2.5,4.8c0,0.4,0,0.8,0,1c0,0,0.2,0.3,0.3,0.3c0,0,0.3,0.1,0.5,0.2h20.3c0.6,0,1,0.4,1,1
	S463.7,60.8,463.1,60.8z"/>
<path d="M442.9,70.4c-2.2,0-4-1.8-4-4.1s1.8-4.1,4-4.1s4,1.8,4,4.1S445.1,70.4,442.9,70.4z M442.9,64.2c-1.1,0-2,0.9-2,2.1
	s0.9,2.1,2,2.1s2-0.9,2-2.1S444,64.2,442.9,64.2z"/>
<path d="M459.9,70.4c-2.2,0-4-1.8-4-4.1s1.8-4.1,4-4.1s4,1.8,4,4.1S462.2,70.4,459.9,70.4z M459.9,64.2c-1.1,0-2,0.9-2,2.1
	s0.9,2.1,2,2.1c1.1,0,2-0.9,2-2.1S461.1,64.2,459.9,64.2z"/>
<path d="M459.1,53.5h-15.7v-2h15.1l6.1-11h-26.5v-2h28.2c0.4,0,0.7,0.2,0.9,0.5c0.2,0.3,0.2,0.7,0,1L460,53
	C459.8,53.3,459.4,53.5,459.1,53.5z"/>
</svg>
