<?xml version="1.0" encoding="iso-8859-1"?>
<!-- Generator: Adobe Illustrator 19.1.0, SVG Export Plug-In . SVG Version: 6.00 Build 0)  -->
<svg version="1.1" id="Capa_1" xmlns="http://www.w3.org/2000/svg" xmlns:xlink="http://www.w3.org/1999/xlink" x="0px" y="0px"
	 viewBox="0 0 540.078 540.078" style="enable-background:new 0 0 540.078 540.078;" xml:space="preserve">
<g>
	<g>
		<polygon points="365.71,86.413 266.713,257.734 157.7,194.793 148.699,210.383 257.707,273.32 248.764,288.797 264.334,297.794 
			273.28,282.312 288.822,291.285 297.823,275.695 282.287,266.725 381.281,95.411 		"/>
		<path d="M270.039,0C121.14,0,0,121.139,0,270.039s121.14,270.039,270.039,270.039c148.9,0,270.039-121.14,270.039-270.039
			S418.938,0,270.039,0z M270.039,522.075c-138.98,0-252.036-113.056-252.036-252.036S131.059,18.003,270.039,18.003
			s252.036,113.056,252.036,252.036S409.019,522.075,270.039,522.075z"/>
		<rect x="27.004" y="270.039" width="36.005" height="18.003"/>
		<rect x="477.069" y="252.036" width="36.005" height="18.003"/>
		<rect x="252.036" y="27.004" width="18.003" height="36.005"/>
		<rect x="270.039" y="477.069" width="18.003" height="36.005"/>
	</g>
</g>
<g>
</g>
<g>
</g>
<g>
</g>
<g>
</g>
<g>
</g>
<g>
</g>
<g>
</g>
<g>
</g>
<g>
</g>
<g>
</g>
<g>
</g>
<g>
</g>
<g>
</g>
<g>
</g>
<g>
</g>
</svg>
