<?xml version="1.0" encoding="utf-8"?>
<!-- Generator: Adobe Illustrator 19.0.0, SVG Export Plug-In . SVG Version: 6.00 Build 0)  -->
<svg version="1.1" id="Слой_1" xmlns="http://www.w3.org/2000/svg" xmlns:xlink="http://www.w3.org/1999/xlink" x="0px" y="0px"
	 viewBox="0 0 99.2 99.2" style="enable-background:new 0 0 99.2 99.2;" xml:space="preserve">
<path id="XMLID_43_" d="M60.4,59.1h-24v-15H24.2v15H0.4V36.2h15.3V24.1H0.4V1.2h23.9V16h12.1V1.2h24v22.9h-15v12.1h15V59.1z
	 M39.4,56.1h18V39.2h-15V21.1h15V4.2h-18V19H21.2V4.2H3.4v16.9h15.3v18.1H3.4v16.9h17.9v-15h18.1V56.1z"/>
<polygon id="XMLID_42_" points="41.2,98.2 38.4,98.2 38.4,82 34,82 34,69.2 26.9,69.2 26.9,82 22.6,82 22.6,98.2 19.8,98.2 
	19.8,79.2 24.1,79.2 24.1,66.4 36.8,66.4 36.8,79.1 41.2,79.1 "/>
<polygon id="XMLID_41_" points="98.9,40.6 79.9,40.6 79.9,36.5 67,36.5 67,24.1 79.8,24.1 79.8,19.9 98.9,19.9 98.9,22.6 82.6,22.6 
	82.6,26.9 69.8,26.9 69.8,33.7 82.6,33.7 82.6,37.9 98.9,37.9 "/>
</svg>
