<?xml version="1.0" encoding="iso-8859-1"?>
<!-- Generator: Adobe Illustrator 18.1.1, SVG Export Plug-In . SVG Version: 6.00 Build 0)  -->
<svg version="1.1" id="Capa_1" xmlns="http://www.w3.org/2000/svg" xmlns:xlink="http://www.w3.org/1999/xlink" x="0px" y="0px"
	 viewBox="0 0 591.6 591.6" style="enable-background:new 0 0 591.6 591.6;" xml:space="preserve">
<g>
	<g>
		<path d="M540.6,71.4h-91.8v-51c0-5.712-4.488-10.2-10.2-10.2H153c-5.712,0-10.2,4.488-10.2,10.2v51H51c-28.152,0-51,22.848-51,51
			s22.848,51,51,51h11.22L102,531.624C105.264,561,126.276,581.4,153,581.4h285.6c26.724,0,47.736-20.604,51-49.776L529.38,173.4
			h11.22c28.152,0,51-22.848,51-51S568.752,71.4,540.6,71.4z M163.2,30.6h265.2v40.8H163.2V30.6z M469.2,529.176
			c-1.632,15.3-12.036,31.824-30.6,31.824H153c-18.564,0-28.968-16.524-30.6-31.824L82.824,173.4h425.952L469.2,529.176z M540.6,153
			H51c-16.932,0-30.6-13.668-30.6-30.6S34.068,91.8,51,91.8h102l0,0l0,0h285.6l0,0l0,0h102c16.932,0,30.6,13.668,30.6,30.6
			S557.532,153,540.6,153z"/>
		<path d="M193.8,535.5c2.856,0,5.1-2.244,5.1-5.1v-306c0-2.856-2.244-5.1-5.1-5.1s-5.1,2.244-5.1,5.1v306
			C188.7,533.256,190.944,535.5,193.8,535.5z"/>
		<path d="M397.8,535.5c2.856,0,5.1-2.244,5.1-5.1v-306c0-2.856-2.244-5.1-5.1-5.1s-5.1,2.244-5.1,5.1v306
			C392.7,533.256,394.944,535.5,397.8,535.5z"/>
		<path d="M295.8,535.5c2.856,0,5.1-2.244,5.1-5.1v-306c0-2.856-2.244-5.1-5.1-5.1s-5.1,2.244-5.1,5.1v306
			C290.7,533.256,292.944,535.5,295.8,535.5z"/>
		<path d="M55.08,100.98c-14.076,0-25.5,11.424-25.5,25.5c0,2.856,2.244,5.1,5.1,5.1s5.1-2.244,5.1-5.1
			c0-8.364,6.936-15.3,15.3-15.3c2.856,0,5.1-2.244,5.1-5.1C60.18,103.224,57.936,100.98,55.08,100.98z"/>
		<path d="M556.92,113.22c-2.856,0-5.1,2.244-5.1,5.1c0,8.364-6.936,15.3-15.3,15.3c-2.856,0-5.1,2.244-5.1,5.1s2.244,5.1,5.1,5.1
			c14.076,0,25.5-11.424,25.5-25.5C562.02,115.464,559.776,113.22,556.92,113.22z"/>
	</g>
</g>
<g>
</g>
<g>
</g>
<g>
</g>
<g>
</g>
<g>
</g>
<g>
</g>
<g>
</g>
<g>
</g>
<g>
</g>
<g>
</g>
<g>
</g>
<g>
</g>
<g>
</g>
<g>
</g>
<g>
</g>
</svg>
