<?xml version="1.0" encoding="utf-8"?>
<!-- Generator: Adobe Illustrator 19.0.0, SVG Export Plug-In . SVG Version: 6.00 Build 0)  -->
<svg version="1.1"
	 id="svg2" inkscape:version="0.48.4 r9939" sodipodi:docname="Р В»Р С‘РЎРѓРЎвЂљ Р Т‘Р В»РЎРЏ Р Р†Р В°РЎР‚Р С‘Р В°Р Р…РЎвЂљР С•Р Р†.svg" xmlns:dc="http://purl.org/dc/elements/1.1/" xmlns:cc="http://creativecommons.org/ns#" xmlns:rdf="http://www.w3.org/1999/02/22-rdf-syntax-ns#" xmlns:svg="http://www.w3.org/2000/svg" xmlns:sodipodi="http://sodipodi.sourceforge.net/DTD/sodipodi-0.dtd" xmlns:inkscape="http://www.inkscape.org/namespaces/inkscape"
	 xmlns="http://www.w3.org/2000/svg" xmlns:xlink="http://www.w3.org/1999/xlink" x="0px" y="0px" viewBox="726.2 -151.6 69.4 69.3"
	 enable-background="new 726.2 -151.6 69.4 69.3" xml:space="preserve">
<sodipodi:namedview  inkscape:document-units="px" inkscape:pageshadow="2" inkscape:window-width="1280" inkscape:current-layer="layer1" inkscape:window-y="-4" inkscape:window-maximized="1" inkscape:window-x="-4" inkscape:window-height="740" inkscape:pageopacity="0.0" id="base" pagecolor="#ffffff" bordercolor="#666666" borderopacity="1.0" inkscape:zoom="0.48227902" inkscape:cx="88.116731" inkscape:cy="537.68788" showgrid="false">
	</sodipodi:namedview>
<path id="path3765-8" sodipodi:type="arc" sodipodi:cx="890.60114" sodipodi:ry="66.12352" sodipodi:rx="59.924438" sodipodi:cy="-125.46302" fill="#0A100B" d="
	M786.4-112.4c0,0,7.1,0,9.2,0c-2.1,15.5-14.3,27.8-29.8,30c0-1,0-8.8,0-8.8H756c0,0,0,6.7,0,8.7c-15.5-2.2-27.7-14.5-29.7-30
	c1.4,0,9.3,0,9.3,0v-9.1c0,0-8.7,0-9.4,0c2.1-15.5,14.3-28,29.8-30.2c0,0.7,0,8.7,0,8.7h5.3l0,25.5l0,0l25.1,0L786.4-112.4z"/>
<path id="path3765-8_2_" sodipodi:type="arc" sodipodi:cx="890.60114" sodipodi:ry="66.12352" sodipodi:rx="59.924438" sodipodi:cy="-125.46302" fill="#208747" d="
	M761.3-142.9h4.5c0,0,0-7.6,0-8.7c15.5,2.2,27.8,14.6,29.8,30.2c-0.5,0-9.3,0-9.3,0l0,4h-25"/>
<ellipse fill="#208747" cx="760.8" cy="-116.9" rx="19.4" ry="19.4"/>
<path fill="#0A100B" d="M761.3-117.4c0,0,0-18.7,0-18.9c10.3,0.3,18.6,8.6,18.9,18.9C780-117.4,761.3-117.4,761.3-117.4z"/>
<rect id="rect3785" x="726.3" y="-117.4" fill="#0A100B" width="69.3" height="1.1"/>
<rect id="rect3783" x="760.2" y="-151.6" fill="#0A100B" width="1.1" height="69.3"/>
</svg>
