<?xml version="1.0" encoding="utf-8"?>
<!-- Generator: Adobe Illustrator 19.0.0, SVG Export Plug-In . SVG Version: 6.00 Build 0)  -->
<svg version="1.1" id="Слой_1" xmlns="http://www.w3.org/2000/svg" xmlns:xlink="http://www.w3.org/1999/xlink" x="0px" y="0px"
	 viewBox="0 0 99.2 99.2" style="enable-background:new 0 0 99.2 99.2;" xml:space="preserve">
<polygon id="XMLID_4_" points="96.6,90.2 63.8,61.8 63.8,29.6 48.6,14.4 18.4,14.4 3.6,29.3 3.6,60.1 18.1,74.6 48.6,74.6 
	55.4,67.8 57.4,69.7 49.8,77.4 16.9,77.4 0.8,61.3 0.8,28.1 17.3,11.6 49.8,11.6 66.6,28.4 66.6,60.5 98.4,88.1 "/>
<polygon id="XMLID_3_" points="28.9,60.1 13.4,26.3 15.9,25.1 29.8,55.2 70.1,14.9 72.1,16.9 "/>
<rect id="XMLID_2_" x="44" y="1.6" transform="matrix(0.7071 0.7071 -0.7071 0.7071 34.2328 -23.4207)" width="2.8" height="55.9"/>
</svg>
